<?xml version="1.0" encoding="utf-8"?>
<!-- Generator: Adobe Illustrator 17.0.2, SVG Export Plug-In . SVG Version: 6.00 Build 0)  -->
<!DOCTYPE svg PUBLIC "-//W3C//DTD SVG 1.1//EN" "http://www.w3.org/Graphics/SVG/1.1/DTD/svg11.dtd">
<svg version="1.1" id="Layer_1" xmlns="http://www.w3.org/2000/svg" xmlns:xlink="http://www.w3.org/1999/xlink" x="0px" y="0px"
	 width="60px" height="40px" viewBox="0 0 60 40" enable-background="new 0 0 60 40" xml:space="preserve">
<g>
	<g>
		<path fill="#CECECD" d="M60,34.978c0,2.748-2.249,4.997-4.997,4.997H5.035c-2.748,0-4.997-2.249-4.997-4.997V4.997
			C0.038,2.249,2.287,0,5.035,0h49.968C57.751,0,60,2.249,60,4.997V34.978z"/>
	</g>
	<rect x="0.288" y="7.286" fill="#434244" width="58.962" height="7.995"/>
	<g>
		<g>
			<path fill="#DFDEDC" d="M55.003,0.999c2.205,0,3.997,1.793,3.997,3.997v29.981c0,2.205-1.793,3.997-3.997,3.997H5.035
				c-2.205,0-3.997-1.793-3.997-3.997V4.997c0-2.205,1.793-3.997,3.997-3.997H55.003 M55.003,0.025H5.035
				c-2.748,0-4.997,2.249-4.997,4.997v29.981C0.038,37.751,2.287,40,5.035,40h49.968C57.751,40,60,37.751,60,35.003V5.022
				C60,2.274,57.751,0.025,55.003,0.025L55.003,0.025z"/>
		</g>
	</g>
</g>
</svg>
